<?xml version="1.0" encoding="UTF-8" standalone="no"?>
<!-- Created with Inkscape (http://www.inkscape.org/) -->

<svg
   width="269.37289mm"
   height="85mm"
   viewBox="0 0 269.37289 85"
   version="1.1"
   id="svg5"
   sodipodi:docname="lanime-logo.svg"
   inkscape:version="1.1.1 (3bf5ae0d25, 2021-09-20)"
   xmlns:inkscape="http://www.inkscape.org/namespaces/inkscape"
   xmlns:sodipodi="http://sodipodi.sourceforge.net/DTD/sodipodi-0.dtd"
   xmlns="http://www.w3.org/2000/svg"
   xmlns:svg="http://www.w3.org/2000/svg">
  <sodipodi:namedview
     id="namedview7"
     pagecolor="#ffffff"
     bordercolor="#666666"
     borderopacity="1.0"
     inkscape:pageshadow="2"
     inkscape:pageopacity="0.0"
     inkscape:pagecheckerboard="0"
     inkscape:document-units="mm"
     showgrid="false"
     fit-margin-top="0"
     fit-margin-left="0"
     fit-margin-right="0"
     fit-margin-bottom="0"
     inkscape:zoom="0.78751403"
     inkscape:cx="196.18698"
     inkscape:cy="285.07429"
     inkscape:window-width="1920"
     inkscape:window-height="1017"
     inkscape:window-x="1912"
     inkscape:window-y="-8"
     inkscape:window-maximized="1"
     inkscape:current-layer="layer1" />
  <defs
     id="defs2" />
  <g
     inkscape:label="Layer 1"
     inkscape:groupmode="layer"
     id="layer1"
     transform="translate(-48.908064,-52.95601)">
    <path
       style="fill:none;stroke:#000000;stroke-width:0.264583px;stroke-linecap:butt;stroke-linejoin:miter;stroke-opacity:1"
       d="m 55.771494,56.361918 13.270925,-3.405908 -7.727375,70.34602 34.605203,-3.35972 -1.175904,18.0137 H 49.052035 Z"
       id="path857"
       sodipodi:nodetypes="ccccccc" />
    <path
       style="fill:none;stroke:#000000;stroke-width:0.264583px;stroke-linecap:butt;stroke-linejoin:miter;stroke-opacity:1"
       d="m 95.920247,119.94231 4.333733,-14.34303 18.41157,-0.35636 3.32597,32.71309 h 15.08561 L 124.24842,54.759581 103.46116,53.096599 84.722929,120.98185 Z"
       id="path859"
       sodipodi:nodetypes="ccccccccc" />
    <path
       style="fill:none;stroke:#000000;stroke-width:0.264583px;stroke-linecap:butt;stroke-linejoin:miter;stroke-opacity:1"
       d="m 104.29265,90.157312 4.63259,-16.74859 7.12706,0.356354 1.42541,17.936434 z"
       id="path861" />
    <path
       style="fill:none;stroke:#000000;stroke-width:0.264583px;stroke-linecap:butt;stroke-linejoin:miter;stroke-opacity:1"
       d="m 132.54129,108.01527 5.12358,-55.05926 h 13.77489 l 16.37868,62.28268 3.35973,-58.711255 15.62273,-3.571425 -4.70362,85 h -17.3026 l -17.47059,-43.043676 -3.17689,42.239696 -7.07007,0.80398 z"
       id="path863"
       sodipodi:nodetypes="cccccccccccc" />
    <path
       style="fill:none;stroke:#000000;stroke-width:0.264583px;stroke-linecap:butt;stroke-linejoin:miter;stroke-opacity:1"
       d="m 186.8009,52.95601 14.95079,2.815484 6.88745,82.184516 H 193.0164 l -6.67746,-73.785197 z"
       id="path865"
       sodipodi:nodetypes="cccccc" />
    <path
       style="fill:none;stroke:#000000;stroke-width:0.264583px;stroke-linecap:butt;stroke-linejoin:miter;stroke-opacity:1"
       d="m 207.46323,122.04214 6.63547,-69.08613 14.36284,3.067462 10.41515,34.521211 9.40724,-37.588673 14.78281,1.807564 3.06576,80.413006 -18.6885,2.77943 2.01584,-44.89153 -9.74321,15.11877 -13.6069,-17.806553 -3.35973,45.646603 -14.11086,1.93271 z"
       id="path867"
       sodipodi:nodetypes="cccccccccccccc" />
    <path
       style="fill:none;stroke:#000000;stroke-width:0.264583px;stroke-linecap:butt;stroke-linejoin:miter;stroke-opacity:1"
       d="m 267.04736,58.369019 50.74274,-5.413009 0.35636,25.487562 -36.82932,-6.117296 -0.74853,18.068606 19.83699,-0.950274 -0.59392,18.530362 -20.43092,0.59392 -0.83148,14.13533 39.12204,-1.73585 -1.78175,16.98764 -49.75707,-2.77943 -1.88985,-49.681989 z"
       id="path869"
       sodipodi:nodetypes="cccccccccccccc" />
    <path
       style="fill:#000096;fill-opacity:1;stroke:none;stroke-width:26.4567;stroke-linecap:square;stroke-linejoin:round;stroke-miterlimit:4;stroke-dasharray:none;stroke-opacity:1;paint-order:fill markers stroke"
       d="m 1.7957948,318.18568 c 0,-2.71393 24.1284292,-296.771172 24.7084152,-301.12563 L 26.982587,13.468461 50.85255,7.3565188 C 63.981029,3.9949508 74.811602,1.368601 74.92049,1.5201859 75.029377,1.6717708 68.565598,61.191706 60.556535,133.78671 c -8.009062,72.595 -14.304304,132.22115 -13.989427,132.50256 0.314878,0.28141 29.560598,-2.31403 64.990492,-5.76765 35.42989,-3.45363 64.5938,-6.1035 64.80868,-5.88862 0.21488,0.21489 -0.57898,14.72992 -1.76415,32.25564 -1.18517,17.52571 -2.16632,32.16797 -2.18034,32.53835 -0.014,0.37038 -38.41061,0.67343 -85.325744,0.67343 H 1.7957948 Z"
       id="path3996"
       transform="matrix(0.26458333,0,0,0.26458333,48.908064,52.95601)" />
    <path
       style="fill:#103aff;fill-opacity:1;stroke:none;stroke-width:26.4567;stroke-linecap:square;stroke-linejoin:round;stroke-miterlimit:4;stroke-dasharray:none;stroke-opacity:1;paint-order:fill markers stroke"
       d="m 276.82047,319.05852 c 0,-2.85892 -11.51763,-117.10531 -12.07334,-119.75859 -0.5361,-2.55968 -1.09832,-2.59335 -35.18739,-2.1073 -25.99656,0.37066 -34.9595,0.89622 -35.9124,2.10581 -0.6984,0.88654 -4.65832,12.97749 -8.79983,26.86877 -4.1415,13.89128 -7.62712,25.40922 -7.74581,25.59542 -0.40596,0.63685 -38.99867,4.22189 -39.54689,3.67368 -0.68533,-0.68533 68.23007,-251.2295147 69.51098,-252.7094509 0.94424,-1.0909513 73.93557,4.1583589 75.94447,5.4616913 0.96542,0.6263389 48.44451,304.8056196 48.42175,310.2184796 -0.009,2.04716 -2.1595,2.22218 -27.31044,2.22218 -20.84056,0 -27.3011,-0.37169 -27.3011,-1.57069 z M 259.89735,141.90223 c -0.40845,-3.3174 -1.70018,-18.88855 -2.8705,-34.60255 -1.17032,-15.71401 -2.37819,-28.848924 -2.68417,-29.188702 -0.30598,-0.339778 -6.73757,-0.829349 -14.29242,-1.087935 l -13.7361,-0.470155 -1.36468,4.26248 c -2.87154,8.969095 -16.63906,59.983042 -16.28391,60.338172 0.2053,0.2053 11.48135,1.7441 25.0579,3.41957 13.57654,1.67547 25.18681,3.11706 25.80058,3.20353 0.61378,0.0865 0.78176,-2.557 0.3733,-5.87441 z"
       id="path7178"
       transform="matrix(0.26458333,0,0,0.26458333,48.908064,52.95601)" />
    <path
       style="fill:#103aff;fill-opacity:1;stroke:none;stroke-width:26.4567;stroke-linecap:square;stroke-linejoin:round;stroke-miterlimit:4;stroke-dasharray:none;stroke-opacity:1;paint-order:fill markers stroke"
       d="m 331.68078,303.87087 c -1.45291,-9.29052 -5.33272,-34.63407 -8.62181,-56.31899 l -5.98016,-39.42713 9.11692,-98.9831 C 331.21004,54.700944 335.63047,8.0157302 336.01891,5.3967293 l 0.70626,-4.76181998 h 24.96994 24.96994 L 417.4632,117.67754 c 16.93898,64.37345 31.0804,117.32489 31.42537,117.66986 0.34498,0.34499 0.84732,0.38914 1.1163,0.0982 0.26899,-0.29102 3.13592,-48.24255 6.37096,-106.55897 3.23503,-58.316419 6.30061,-108.008575 6.81239,-110.42701 l 0.9305,-4.397156 27.09469,-6.1794414 c 14.90207,-3.3986926 27.46078,-5.8133452 27.90824,-5.3658945 0.44744,0.4474507 -2.80785,66.6343959 -7.23399,147.0821019 -4.42615,80.44771 -8.35381,151.83988 -8.72815,158.64929 l -0.68063,12.38073 -31.87826,-0.009 -31.87828,-0.01 -32.94695,-81.25897 c -18.12082,-44.69245 -33.40626,-81.25899 -33.96765,-81.25899 -0.56138,0 -1.02069,0.70045 -1.02069,1.55655 0,4.24787 -11.58106,155.46151 -11.99972,156.68009 -0.26719,0.77771 -5.17696,1.82324 -10.9106,2.3234 -5.73363,0.50015 -11.12893,1.17957 -11.98954,1.50981 -1.11724,0.42873 -2.32027,-4.23059 -4.20641,-16.2914 z"
       id="path11694"
       transform="matrix(0.26458333,0,0,0.26458333,48.908064,52.95601)" />
    <path
       style="fill:#103aff;fill-opacity:1;stroke:none;stroke-width:26.4567;stroke-linecap:square;stroke-linejoin:round;stroke-miterlimit:4;stroke-dasharray:none;stroke-opacity:1;paint-order:fill markers stroke"
       d="m 545.46306,317.77212 c -0.33404,-1.5714 -6.11345,-64.28457 -12.84314,-139.3626 C 520.98938,48.656238 520.42858,40.895933 521.28268,21.524245 l 0.89854,-20.3797709 26.84077,5.0029986 c 14.76242,2.7516493 27.04824,5.1777663 27.30183,5.3913713 0.25358,0.213604 6.28357,69.846321 13.39997,154.739366 l 12.93891,154.351 H 574.36655 546.0704 Z"
       id="path11733"
       transform="matrix(0.26458333,0,0,0.26458333,48.908064,52.95601)" />
    <path
       style="fill:#103aff;fill-opacity:1;stroke:none;stroke-width:26.4567;stroke-linecap:square;stroke-linejoin:round;stroke-miterlimit:4;stroke-dasharray:none;stroke-opacity:1;paint-order:fill markers stroke"
       d="m 604.02082,311.85067 c -0.40647,-4.60021 -1.39564,-18.64954 -2.19817,-31.22075 l -1.45914,-22.85673 12.19668,-126.34696 C 619.26836,61.935405 624.89835,4.1907095 625.07127,3.1046855 c 0.26919,-1.6905418 4.05905,-1.1698311 26.3457,3.6197833 14.3172,3.0769048 26.145,5.6982112 26.284,5.8251262 0.13899,0.126918 8.85407,28.783186 19.36684,63.680605 10.51277,34.89742 19.58611,64.56258 20.16298,65.92257 0.7431,1.75189 6.16291,-18.05243 18.59172,-67.935293 9.64857,-38.724412 17.88976,-71.0179249 18.31377,-71.7633629 0.5325,-0.9361978 9.01752,-0.3471543 27.4371,1.904728 l 26.66619,3.2600698 0.30647,3.8094561 c 0.16856,2.095201 2.32708,58.094203 4.79673,124.442232 2.46963,66.34802 4.97371,132.63255 5.5646,147.29896 0.59089,14.6664 1.00375,26.71432 0.91747,26.77313 -0.0864,0.0588 -15.44234,2.37281 -34.12455,5.14222 l -33.96765,5.03529 v -4.13486 c 0,-6.16897 6.10986,-142.90468 6.92758,-155.03583 0.38838,-5.7618 0.27425,-10.46933 -0.25363,-10.46119 -0.52786,0.008 -8.95962,12.55431 -18.73723,27.88039 -9.7776,15.32607 -18.08347,27.89061 -18.45748,27.9212 -0.37401,0.0306 -12.08181,-14.89141 -26.01734,-33.16 -24.1287,-31.6312 -25.38093,-33.0395 -26.25137,-29.52329 -0.50272,2.03079 -3.57349,40.83454 -6.82393,86.23056 -3.25044,45.39601 -6.04296,82.68821 -6.20561,82.87155 -0.16264,0.18335 -10.52648,1.74757 -23.03074,3.47606 -12.50427,1.72851 -23.94733,3.34234 -25.42904,3.58631 -2.45937,0.40495 -2.75837,-0.28488 -3.43303,-7.92043 z"
       id="path11772"
       transform="matrix(0.26458333,0,0,0.26458333,48.908064,52.95601)" />
    <path
       style="fill:#103aff;fill-opacity:1;stroke:none;stroke-width:26.4567;stroke-linecap:square;stroke-linejoin:round;stroke-miterlimit:4;stroke-dasharray:none;stroke-opacity:1;paint-order:fill markers stroke"
       d="m 913.65172,315.07062 c -77.59586,-4.44377 -91.45094,-5.52271 -91.68234,-7.1396 -0.14993,-1.0476 -1.78899,-43.61827 -3.64237,-94.60149 l -3.36977,-92.69676 5.19439,-49.399055 c 2.85691,-27.169482 5.34537,-49.528083 5.52989,-49.685779 0.18453,-0.157696 42.90618,-4.809627 94.937,-10.337624 L 1015.22,1.1594092 l 0.6349,46.4035848 c 0.3492,25.521972 0.4937,46.639994 0.3212,46.928938 -0.1725,0.288945 -31.31484,-4.647317 -69.20511,-10.969468 -37.89026,-6.322152 -69.02552,-11.376732 -69.18944,-11.232402 -0.53946,0.474981 -3.2356,69.359818 -2.73282,69.822188 0.27017,0.24846 15.34811,-0.31106 33.50651,-1.24337 18.15841,-0.93233 34.87491,-1.72407 37.1478,-1.75943 l 4.13251,-0.0643 -0.64376,14.28546 c -0.35406,7.85701 -0.98421,23.20085 -1.40032,34.09741 l -0.75656,19.81197 -38.2744,0.9157 c -21.05093,0.50364 -38.36109,1.01666 -38.46702,1.14006 -0.51859,0.60403 -3.26926,54.353 -2.80532,54.81693 0.29512,0.29513 33.26553,-0.92433 73.26755,-2.70992 40.00203,-1.78558 72.98408,-2.9934 73.29348,-2.68403 0.3093,0.30935 -0.8718,13.93721 -2.6249,30.28412 -1.753,16.3469 -3.1875,30.15021 -3.1878,30.67401 -3e-4,0.5238 -0.7148,0.87952 -1.5878,0.7905 -0.873,-0.089 -42.72163,-2.51756 -92.99698,-5.39673 z"
       id="path11811"
       transform="matrix(0.26458333,0,0,0.26458333,48.908064,52.95601)" />
  </g>
</svg>
